<?xml version="1.0" encoding="UTF-8" standalone="no"?>
<!DOCTYPE svg PUBLIC "-//W3C//DTD SVG 1.1//EN" "http://www.w3.org/Graphics/SVG/1.1/DTD/svg11.dtd">
<svg width="100%" height="100%" viewBox="0 0 1914 1224" version="1.1" xmlns="http://www.w3.org/2000/svg" xmlns:xlink="http://www.w3.org/1999/xlink" xml:space="preserve" xmlns:serif="http://www.serif.com/" style="fill-rule:evenodd;clip-rule:evenodd;stroke-linejoin:round;stroke-miterlimit:2;">
    <g transform="matrix(1,0,0,1,-13.880051,-1240.15748)">
        <rect x="13.88" y="2287.391" width="358.226" height="176.567" style="fill:rgb(162,162,162);"/>
    </g>
    <g transform="matrix(1,0,0,1,367.65061,-1240.15748)">
        <rect x="13.88" y="2287.391" width="358.226" height="176.567" style="fill:rgb(162,162,162);"/>
    </g>
    <g transform="matrix(1,0,0,1,749.526283,-1240.15748)">
        <rect x="13.88" y="2287.391" width="358.226" height="176.567" style="fill:rgb(162,162,162);"/>
    </g>
    <g transform="matrix(1,0,0,1,1131.056944,-1240.15748)">
        <rect x="13.88" y="2287.391" width="358.226" height="176.567" style="fill:rgb(162,162,162);"/>
    </g>
    <g transform="matrix(1,0,0,1,1513.051896,-1240.15748)">
        <rect x="13.88" y="2287.391" width="358.226" height="176.567" style="fill:rgb(162,162,162);"/>
    </g>
    <g transform="matrix(0.949699,0,0,1,125.974415,-1439.848465)">
        <rect x="13.88" y="2287.391" width="358.226" height="176.567" style="fill:rgb(162,162,162);"/>
    </g>
    <g transform="matrix(0.949699,0,0,1,125.974415,-1642.500797)">
        <rect x="13.88" y="2287.391" width="358.226" height="176.567" style="fill:rgb(162,162,162);"/>
    </g>
    <g transform="matrix(0.964208,-0.265147,0.265147,0.964208,-532.735201,-1727.197166)">
        <rect x="13.88" y="2287.391" width="358.226" height="176.567" style="fill:rgb(142,255,0);"/>
    </g>
    <g transform="matrix(0.964893,-0.262643,0.262643,0.964893,-169.329445,-1830.164213)">
        <rect x="13.88" y="2287.391" width="358.226" height="176.567" style="fill:rgb(162,162,162);"/>
    </g>
    <g transform="matrix(0.964208,-0.265147,0.265147,0.964208,178.671575,-1930.271912)">
        <rect x="13.88" y="2287.391" width="358.226" height="176.567" style="fill:rgb(162,162,162);"/>
    </g>
    <g transform="matrix(0.974794,0.223107,-0.223107,0.974794,1726.967181,-2109.160123)">
        <rect x="13.88" y="2287.391" width="358.226" height="176.567" style="fill:rgb(162,162,162);"/>
    </g>
    <g transform="matrix(0.427093,0.581085,-0.805767,0.592232,3170.218399,-1032.310832)">
        <rect x="13.88" y="2287.391" width="358.226" height="176.567"/>
    </g>
    <g transform="matrix(0.99772,-0.067491,0.067491,0.99772,630.322675,-1838.69444)">
        <rect x="13.88" y="2287.391" width="358.226" height="176.567" style="fill:rgb(162,162,162);"/>
    </g>
    <g transform="matrix(0.596763,0.802418,-0.802418,0.596763,3467.242279,-1376.167349)">
        <rect x="13.88" y="2287.391" width="358.226" height="176.567" style="fill:rgb(162,162,162);"/>
    </g>
    <g transform="matrix(0.959021,-0.283335,0.283335,0.959021,798.875863,-1712.515088)">
        <rect x="13.88" y="2287.391" width="358.226" height="176.567" style="fill:rgb(162,162,162);"/>
    </g>
    <g transform="matrix(0.921801,0,0,1,1355.453834,-1439.848465)">
        <rect x="13.88" y="2287.391" width="358.226" height="176.567" style="fill:rgb(162,162,162);"/>
    </g>
    <g transform="matrix(0.921801,0,0,1,1355.453834,-1642.500797)">
        <rect x="13.88" y="2287.391" width="358.226" height="176.567" style="fill:rgb(162,162,162);"/>
    </g>
    <g transform="matrix(1.003883,0,0,0.748291,296.726782,-690.332503)">
        <path d="M458.386,1783.764C398.065,1825.996 349.093,1924.997 349.093,2037.154C349.093,2149.311 398.065,2248.312 458.386,2290.544C337.745,2290.544 239.8,2177.004 239.8,2037.154C239.8,1897.304 337.745,1783.764 458.386,1783.764Z" style="fill:rgb(251,99,51);"/>
    </g>
    <g transform="matrix(1.09096,0,0,1.09096,-90.656044,-1428.827046)">
        <g transform="matrix(-0.00405,1.380219,-1.289362,-0.003783,3494.378262,49.536944)">
            <path d="M1591.464,2050.524L1353.276,2050.524C1341.206,2031.49 1334.852,2009.898 1334.852,1987.919C1334.852,1918.814 1396.472,1862.71 1472.37,1862.71C1548.269,1862.71 1609.888,1918.814 1609.888,1987.919C1609.888,2009.898 1603.534,2031.49 1591.464,2050.524Z" style="fill:rgb(255,186,0);"/>
        </g>
        <g transform="matrix(0.011774,1.341423,-1.146071,0.010059,3234.622262,234.898849)">
            <path d="M1437.676,2049.645L1274.472,2049.645C1266.202,2038.27 1261.849,2025.367 1261.849,2012.233C1261.849,1970.938 1304.07,1937.411 1356.074,1937.411C1408.078,1937.411 1450.299,1970.938 1450.299,2012.233C1450.299,2025.367 1445.946,2038.27 1437.676,2049.645Z" style="fill:rgb(236,98,13);"/>
        </g>
    </g>
    <g transform="matrix(1,0,0,1.061895,-125.931898,-1356.148679)">
        <rect x="1307.688" y="1884.403" width="84.039" height="356.693" style="fill:rgb(0,175,255);"/>
    </g>
    <g transform="matrix(0.958278,-0.285839,0.285839,0.958278,-538.372744,-602.93425)">
        <rect x="1778.815" y="1884.6" width="119.692" height="326.786" style="fill:rgb(231,0,40);"/>
    </g>
</svg>
